<svg width="60" height="31" viewBox="0 0 60 31" fill="none" xmlns="http://www.w3.org/2000/svg">
<rect width="60" height="31" fill="url(#paint0_linear_2006_46)"/>
<path d="M15.0004 25.171C14.1527 25.171 13.3799 25.0071 12.6818 24.6795C11.9838 24.3518 11.4282 23.8674 11.015 23.2264C10.609 22.5782 10.406 21.7839 10.406 20.8437V16.1318H14.1243V20.6193C14.1243 20.947 14.1884 21.2105 14.3166 21.41C14.4519 21.6094 14.6656 21.7091 14.9577 21.7091C15.5204 21.7091 15.8017 21.3637 15.8017 20.6727V6.19512H19.5948V20.2988C19.5948 21.296 19.3989 22.1615 19.0071 22.8951C18.6153 23.6217 18.074 24.1844 17.3831 24.5833C16.6921 24.9751 15.8979 25.171 15.0004 25.171ZM24.74 25.171C23.173 25.171 22.019 24.7329 21.2782 23.8567C20.5374 22.9735 20.167 21.6771 20.167 19.9676V6.19512H23.8212V19.818C23.8212 20.1314 23.839 20.4341 23.8746 20.7262C23.9102 21.0111 23.9921 21.2461 24.1203 21.4313C24.2485 21.6165 24.4551 21.7091 24.74 21.7091C25.0321 21.7091 25.2422 21.6201 25.3704 21.442C25.4986 21.2568 25.577 21.0182 25.6055 20.7262C25.6411 20.4341 25.6589 20.1314 25.6589 19.818V6.19512H29.313V19.9676C29.313 21.6771 28.9426 22.9735 28.2018 23.8567C27.461 24.7329 26.3071 25.171 24.74 25.171ZM34.5652 25.171C32.8485 25.171 31.6091 24.7436 30.8469 23.8888C30.0919 23.034 29.7144 21.6735 29.7144 19.8073V17.9695H33.4326V20.3201C33.4326 20.7547 33.4967 21.0966 33.6249 21.3459C33.7603 21.5881 33.9918 21.7091 34.3194 21.7091C34.6613 21.7091 34.8964 21.6094 35.0246 21.41C35.1599 21.2105 35.2276 20.8829 35.2276 20.427C35.2276 19.85 35.1706 19.3692 35.0567 18.9846C34.9427 18.5928 34.7432 18.2224 34.4583 17.8734C34.1805 17.5172 33.7923 17.1041 33.2937 16.634L31.6055 15.0313C30.3447 13.8417 29.7144 12.4812 29.7144 10.9498C29.7144 9.34707 30.0848 8.12547 30.8256 7.28495C31.5735 6.44442 32.6526 6.02416 34.063 6.02416C35.7868 6.02416 37.0084 6.4836 37.7278 7.40248C38.4544 8.32135 38.8176 9.71747 38.8176 11.5908H34.9925V10.298C34.9925 10.0416 34.9178 9.84212 34.7682 9.69966C34.6257 9.5572 34.4298 9.48597 34.1805 9.48597C33.8813 9.48597 33.6605 9.57145 33.5181 9.7424C33.3827 9.90623 33.3151 10.1199 33.3151 10.3835C33.3151 10.647 33.3863 10.932 33.5288 11.2382C33.6712 11.5445 33.9526 11.8971 34.3728 12.296L36.5418 14.3795C36.9763 14.7927 37.3752 15.2307 37.7385 15.6937C38.1018 16.1496 38.3938 16.6838 38.6146 17.2964C38.8354 17.9019 38.9458 18.6427 38.9458 19.5188C38.9458 21.2853 38.6182 22.6708 37.9629 23.6751C37.3147 24.6723 36.1821 25.171 34.5652 25.171ZM41.1635 25V9.80651H38.9305V6.19512H47.1576V9.80651H44.9245V25H41.1635Z" fill="white"/>
<defs>
<linearGradient id="paint0_linear_2006_46" x1="21.6667" y1="16" x2="-5.5716" y2="-16.3018" gradientUnits="userSpaceOnUse">
<stop stop-color="#651BC4"/>
<stop offset="1" stop-color="#BE90FB"/>
</linearGradient>
</defs>
</svg>
